HIERARCHY
ROOT Hips
{
	OFFSET 0.00000 0.00000 0.00000
	CHANNELS 6 Xposition Yposition Zposition Zrotation Yrotation Xrotation 
	JOINT LHipJoint
	{
		OFFSET 0 0 0
		CHANNELS 3 Zrotation Yrotation Xrotation
		JOINT LeftHip
		{
			OFFSET 1.38280 -1.96574 0.54427
			CHANNELS 3 Zrotation Yrotation Xrotation
			JOINT LeftKnee
			{
				OFFSET 2.72096 -7.47578 0.00000
				CHANNELS 3 Zrotation Yrotation Xrotation
				JOINT LeftAnkle
				{
					OFFSET 2.73041 -7.50176 0.00000
					CHANNELS 3 Zrotation Yrotation Xrotation
					JOINT LeftToe
					{
						OFFSET 0.16150 -0.44371 2.18031
						CHANNELS 3 Zrotation Yrotation Xrotation
						End Site
						{
							OFFSET 0.00000 -0.00000 1.12127
						}
					}
				}
			}
		}
	}
	JOINT RHipJoint
	{
		OFFSET 0 0 0
		CHANNELS 3 Zrotation Yrotation Xrotation
		JOINT RightHip
		{
			OFFSET -1.57224 -1.96575 0.54427
			CHANNELS 3 Zrotation Yrotation Xrotation
			JOINT RightKnee
			{
				OFFSET -2.95935 -8.13076 0.00000
				CHANNELS 3 Zrotation Yrotation Xrotation
				JOINT RightAnkle
				{
					OFFSET -2.52345 -6.93311 0.00000
					CHANNELS 3 Zrotation Yrotation Xrotation
					JOINT RightToe
					{
						OFFSET -0.04475 -0.10171 1.86688
						CHANNELS 3 Zrotation Yrotation Xrotation
						End Site
						{
							OFFSET -0.00000 -0.00000 0.95157
						}
					}
				}
			}
		}
	}
	JOINT lowerback
	{
		OFFSET 0 0 0
		CHANNELS 3 Zrotation Yrotation Xrotation
		JOINT Chest
		{
			OFFSET 0.00669 2.07367 0.09104
			CHANNELS 3 Zrotation Yrotation Xrotation
			JOINT Chest2
			{
				OFFSET -0.00664 2.06198 -0.04732
				CHANNELS 3 Zrotation Yrotation Xrotation
				JOINT lowerneck
				{
					OFFSET 0 0 0
					CHANNELS 3 Zrotation Yrotation Xrotation
					JOINT Neck
					{
						OFFSET -0.00021 1.49948 0.16345
						CHANNELS 3 Zrotation Yrotation Xrotation
						JOINT Head
						{
							OFFSET 0.06080 1.50567 -0.26702
							CHANNELS 3 Zrotation Yrotation Xrotation
							End Site
							{
								OFFSET 0.01726 1.56470 -0.11854
							}
						}
					}
				}
				JOINT LeftCollar
				{
					OFFSET 0 0 0
					CHANNELS 3 Zrotation Yrotation Xrotation
					JOINT LeftShoulder
					{
						OFFSET 3.14993 0.82932 -0.22488
CHANNELS 3 Zrotation Xrotation Yrotation
						JOINT LeftElbow
						{
OFFSET 0 -5.682360 -0.000000
CHANNELS 3 Zrotation Xrotation Yrotation
							JOINT LeftWrist
							{
OFFSET 0 -3.171120 0.000000
CHANNELS 3 Zrotation Xrotation Yrotation
								JOINT lhand
								{
									OFFSET 0 0 0
CHANNELS 3 Zrotation Xrotation Yrotation
									JOINT LFingers
									{
OFFSET 0 -0.632690 0.000000
CHANNELS 3 Zrotation Xrotation Yrotation
										End Site
										{
OFFSET 0 -0.510090 0.000000
										}
									}
								}
								JOINT LThumb
								{
OFFSET 0 0.000000 0.000000
CHANNELS 3 Zrotation Xrotation Yrotation
									End Site
									{
OFFSET 0 -0.517880 0.517880
									}
								}
							}
						}
					}
				}
				JOINT RightCollar
				{
					OFFSET 0 0 0
					CHANNELS 3 Zrotation Yrotation Xrotation
					JOINT RightShoulder
					{
						OFFSET -3.10571 0.91279 -0.33334
CHANNELS 3 Zrotation Xrotation Yrotation
						JOINT RightElbow
						{
OFFSET 0 -5.871200 -0.000000
CHANNELS 3 Zrotation Xrotation Yrotation
							JOINT RightWrist
							{
OFFSET 0 -3.375890 0.000000
CHANNELS 3 Zrotation Xrotation Yrotation
								JOINT rhand
								{
									OFFSET 0 0 0
CHANNELS 3 Zrotation Xrotation Yrotation
									JOINT RFingers
									{
OFFSET 0 -0.603260 0.000000
CHANNELS 3 Zrotation Xrotation Yrotation
										End Site
										{
OFFSET 0 -0.486360 0.000000
										}
									}
								}
								JOINT RThumb
								{
OFFSET 0 0.000000 0.000000
CHANNELS 3 Zrotation Xrotation Yrotation
									End Site
									{
OFFSET 0 -0.493790 0.493790
									}
								}
							}
						}
					}
				}
			}
		}
	}
}
MOTION
Frames: 12
Frame Time: 0.008333333333333333
20.330451 15.816399 -0.442351 184.292150 -91.817973 -553.836671 0.000000 0.000000 0.000000 -13.984310 -2.981708 -42.186388 10.880351 17.876001 62.392254 0.660848 -0.317510 -15.256768 0.000400 0.126682 0.348087 0.000000 0.000000 0.000000 12.882891 4.795695 -39.821670 -9.941697 -17.376948 59.293439 0.012150 4.104968 -2.346974 -5.727697 -14.159147 43.878738 -0.043090 1.420853 12.732758 1.260931 1.216709 10.737157 1.216146 0.292159 4.149205 -2.353773 -4.079999 -14.391782 6.403131 -5.620159 4.618953 1.920365 -2.493055 3.956518 0.000000 0.000000 0.000000 6.826872 -50.034329 -56.356531 110.363219 -58.373206 77.538685 27.233678 3.433492 -24.972156 0.000000 0.000000 0.000000 -7.125000 0.000000 0.000000 -2.620044 57.605495 0.807728 0.000000 0.000000 0.000000 3.302186 -37.346675 53.426678 -106.651996 -58.925467 -74.369018 -37.441856 -49.553852 -2.403702 0.000000 0.000000 0.000000 7.125000 0.000000 0.000000 -8.281687 26.930396 -3.668448
20.351310 15.814198 -0.440647 185.105853 -91.906453 -554.925968 0.000000 0.000000 0.000000 -14.087798 -2.942944 -41.913539 10.849589 17.860645 62.292116 0.653749 -0.348105 -15.164016 0.002250 0.305475 0.839281 0.000000 0.000000 0.000000 12.787702 5.010679 -39.438429 -9.913540 -17.360944 59.199017 0.011099 4.299001 -2.557517 -5.719095 -14.150496 43.843736 -0.064652 1.342846 13.044100 1.218870 1.109481 10.714289 1.189445 0.237318 3.960184 -2.491515 -4.011199 -14.292557 5.988450 -5.474582 4.949752 1.825962 -2.438721 4.025631 0.000000 0.000000 0.000000 5.973077 -49.625849 -53.986031 112.331589 -58.029018 79.211727 31.866168 5.985112 -25.859121 0.000000 0.000000 0.000000 -7.125000 0.000000 0.000000 2.433929 59.676983 -0.872397 0.000000 0.000000 0.000000 4.511529 -37.780033 50.823963 -104.468010 -59.194025 -72.495717 -40.032851 -51.062944 -2.737244 0.000000 0.000000 0.000000 7.125000 0.000000 0.000000 -10.185335 26.378843 -4.668852
20.374908 15.806843 -0.443059 185.290927 -91.808135 -555.342481 0.000000 0.000000 0.000000 -14.068074 -2.806284 -41.773529 10.845868 17.858809 62.279959 0.645394 -0.231400 -15.103967 0.000150 0.082962 0.228020 0.000000 0.000000 0.000000 12.817314 5.239216 -39.173680 -9.880368 -17.342060 59.087811 0.010703 4.470683 -2.711322 -5.700106 -14.131306 43.765923 -0.253866 1.329287 13.272971 1.411482 1.072627 10.635276 1.497229 0.201648 3.745973 -2.727800 -3.796125 -14.315618 5.582285 -5.125514 5.604427 1.762297 -2.279054 4.209070 0.000000 0.000000 0.000000 5.719700 -49.414001 -60.247773 103.159823 -59.331848 71.370911 26.058943 4.049688 -25.635192 0.000000 0.000000 0.000000 -7.125000 0.000000 0.000000 -4.172673 58.041608 1.332255 0.000000 0.000000 0.000000 6.784976 -39.513986 57.859402 -110.003271 -58.432077 -77.232045 -38.134139 -50.588534 -3.681574 0.000000 0.000000 0.000000 7.125000 0.000000 0.000000 -8.643741 25.295984 -4.166703
20.377896 15.796102 -0.451748 185.360730 -91.948175 -555.410364 0.000000 0.000000 0.000000 -14.080538 -2.850621 -41.867929 10.873745 17.872747 62.370833 0.647346 -0.306954 -15.101437 0.002100 0.294302 0.808556 0.000000 0.000000 0.000000 12.791075 5.125746 -39.305076 -9.935106 -17.373204 59.271219 0.012046 4.490573 -2.672647 -5.722419 -14.153819 43.857173 -0.206433 1.295337 12.917087 1.279229 1.036704 10.695953 1.340341 0.191408 4.006037 -2.381713 -3.651134 -14.740501 5.454750 -4.986461 5.753728 1.672056 -2.201629 4.305273 0.000000 0.000000 0.000000 5.802540 -49.246181 -62.745547 98.515497 -59.723730 67.367731 29.427128 3.922588 -24.041370 0.000000 0.000000 0.000000 -7.125000 0.000000 0.000000 0.125196 57.102575 -0.046053 0.000000 0.000000 0.000000 7.717758 -39.913990 60.683990 -112.164328 -58.059845 -79.069857 -35.771224 -50.624942 -4.154057 0.000000 0.000000 0.000000 7.125000 0.000000 0.000000 -6.835741 24.864059 -3.349898
20.378755 15.794149 -0.455963 184.929232 -92.032342 -555.142920 0.000000 0.000000 0.000000 -14.089635 -2.840674 -41.689157 10.876430 17.874089 62.379585 0.641949 -0.321222 -15.033423 0.001000 0.206118 0.566200 0.000000 0.000000 0.000000 12.812968 4.967876 -39.143946 -9.938155 -17.374903 59.281567 0.014700 4.562195 -2.621034 -5.664801 -14.095500 43.621349 -0.062090 1.335949 12.814869 1.106604 1.096992 10.829512 1.075444 0.232385 4.210397 -2.481903 -3.676702 -14.331143 5.800418 -4.997464 4.610109 1.806948 -2.219966 3.901131 0.000000 0.000000 0.000000 6.158912 -47.939784 -58.623102 104.741331 -59.162262 72.730413 25.704278 2.890588 -23.464455 0.000000 0.000000 0.000000 -7.125000 0.000000 0.000000 -3.778726 55.662452 0.989225 0.000000 0.000000 0.000000 5.250439 -38.605871 56.195638 -111.629893 -58.156099 -78.616016 -34.833326 -49.690867 -3.564524 0.000000 0.000000 0.000000 7.125000 0.000000 0.000000 -6.195722 25.634637 -2.921720
20.390167 15.792451 -0.466553 183.324209 -92.039752 -553.787484 0.000000 0.000000 0.000000 -14.010901 -2.778579 -41.445591 10.859605 17.865727 62.324902 0.646191 -0.361983 -15.069717 0.002053 0.291133 0.799950 0.000000 0.000000 0.000000 12.915653 5.041914 -38.848234 -9.922154 -17.365874 59.227946 0.012791 4.629805 -2.756941 -5.705035 -14.136284 43.786079 -0.065584 1.440181 12.732771 1.155182 1.203903 11.137022 1.122296 0.270457 4.586756 -2.621465 -3.722010 -14.500196 5.629716 -5.008187 4.453653 1.774672 -2.237349 3.878177 0.000000 0.000000 0.000000 7.619797 -48.070265 -54.082882 108.010749 -58.738108 75.531708 30.362497 4.470899 -23.912548 0.000000 0.000000 0.000000 -7.125000 0.000000 0.000000 1.206198 57.173918 -0.361108 0.000000 0.000000 0.000000 3.607751 -38.037923 50.788174 -107.857172 -58.759983 -75.400362 -38.938523 -50.038690 -2.781329 0.000000 0.000000 0.000000 7.125000 0.000000 0.000000 -9.360862 26.382881 -4.279812
20.406717 15.793387 -0.464247 187.792452 -91.887433 -558.404855 0.000000 0.000000 0.000000 -14.152451 -2.581037 -41.299796 10.825579 17.848664 62.213847 0.636824 -0.258662 -14.993603 0.000751 0.174270 0.478830 0.000000 0.000000 0.000000 12.803488 5.185787 -38.676857 -9.895785 -17.350791 59.139399 0.011591 4.557304 -2.745216 -5.638392 -14.068441 43.512463 -0.295421 1.409158 13.340612 1.273921 1.170008 10.713751 1.366756 0.250103 3.793817 -2.599361 -3.588755 -13.931463 5.188236 -4.809433 4.835232 1.656837 -2.161194 3.883549 0.000000 0.000000 0.000000 6.616696 -47.596668 -56.593611 104.336535 -59.208026 72.382697 29.921460 4.190548 -24.226586 0.000000 0.000000 0.000000 -7.125000 0.000000 0.000000 0.625095 57.416240 -0.191015 0.000000 0.000000 0.000000 5.138403 -38.556613 53.757115 -107.104720 -58.864869 -74.756697 -40.060103 -50.459215 -3.015564 0.000000 0.000000 0.000000 7.125000 0.000000 0.000000 -10.165294 26.020229 -4.746072
20.407487 15.786397 -0.462244 189.874801 -91.870002 -560.424013 0.000000 0.000000 0.000000 -14.204828 -2.601069 -41.421478 10.848964 17.860356 62.290045 0.641597 -0.253636 -15.051421 0.002303 0.311045 0.854549 0.000000 0.000000 0.000000 12.727721 5.205202 -38.817536 -9.923268 -17.366489 59.231677 0.012844 4.556073 -2.694744 -5.643602 -14.073851 43.534102 -0.436835 1.313948 13.033128 1.456479 1.027691 10.751320 1.655055 0.162009 3.997271 -3.045870 -3.475041 -14.363050 5.538227 -4.613813 5.138196 1.843629 -2.043697 4.057308 0.000000 0.000000 0.000000 7.141883 -49.290521 -63.399959 96.251006 -59.851840 65.410836 31.249600 5.173325 -24.533940 0.000000 0.000000 0.000000 -7.125000 0.000000 0.000000 2.058399 58.065588 -0.657644 0.000000 0.000000 0.000000 7.137105 -39.865099 61.640949 -112.086555 -58.073816 -79.003753 -39.218538 -52.302603 -2.741730 0.000000 0.000000 0.000000 7.125000 0.000000 0.000000 -9.576027 26.418460 -4.371874
20.394974 15.788311 -0.465623 188.700010 -91.996745 -559.272439 0.000000 0.000000 0.000000 -14.203246 -2.687821 -41.334409 10.852089 17.861994 62.300363 0.641703 -0.330923 -15.027298 0.002297 0.309687 0.850964 0.000000 0.000000 0.000000 12.728779 5.019840 -38.819155 -9.952168 -17.382860 59.328414 0.012566 4.503516 -2.661058 -5.594054 -14.023105 43.329970 0.085592 1.305047 12.991676 1.019303 1.074582 10.763461 0.900676 0.235103 4.049112 -2.399168 -3.655764 -14.244959 5.990757 -4.989926 4.242468 1.856441 -2.214691 3.778279 0.000000 0.000000 0.000000 8.212705 -49.054084 -59.546026 101.453547 -59.497921 69.902293 21.961013 0.436565 -21.774641 0.000000 0.000000 0.000000 -7.125000 0.000000 0.000000 -7.112685 53.143007 1.430497 0.000000 0.000000 0.000000 5.990897 -38.819258 58.071023 -114.062390 -57.694999 -80.677360 -34.278833 -49.653222 -3.022711 0.000000 0.000000 0.000000 7.125000 0.000000 0.000000 -5.828167 26.314975 -2.654022
20.385706 15.792242 -0.469590 186.578179 -92.028342 -557.173052 0.000000 0.000000 0.000000 -14.149741 -2.566825 -41.334551 10.858851 17.865325 62.322317 0.631229 -0.352537 -14.895684 0.002087 0.294971 0.810595 0.000000 0.000000 0.000000 12.815467 4.999355 -38.726927 -9.943910 -17.378178 59.300670 0.016329 4.595667 -2.581784 -5.627972 -14.057869 43.469628 0.023630 1.454643 12.613172 1.153848 1.256403 10.917705 1.066648 0.313978 4.412895 -2.781156 -3.934772 -14.062753 6.382001 -5.302975 3.563144 2.020486 -2.374249 3.576759 0.000000 0.000000 0.000000 10.090353 -49.356795 -53.926343 106.866160 -58.896966 74.552385 25.544378 2.134118 -22.041244 0.000000 0.000000 0.000000 -7.125000 0.000000 0.000000 -3.501961 54.113286 0.784045 0.000000 0.000000 0.000000 2.245581 -38.262452 50.535178 -110.247119 -58.391868 -77.439742 -35.680006 -49.849796 -2.118666 0.000000 0.000000 0.000000 7.125000 0.000000 0.000000 -6.975457 27.353684 -3.010005
20.393866 15.798155 -0.461896 193.452683 -91.949599 -564.018068 0.000000 0.000000 0.000000 -14.419062 -2.342364 -41.344428 10.807161 17.839406 62.153761 0.626348 -0.372024 -14.831371 0.003207 0.367486 1.009714 0.000000 0.000000 0.000000 12.563151 5.217008 -38.705289 -9.921410 -17.365427 59.225415 0.012796 4.523162 -2.666744 -5.621434 -14.051179 43.442813 -0.413689 1.297419 12.980978 1.345024 1.023708 10.642255 1.525518 0.172053 3.908858 -3.216565 -3.880118 -13.640791 6.348455 -5.143148 3.286796 2.100418 -2.314561 3.427912 0.000000 0.000000 0.000000 8.059487 -48.687026 -50.355768 108.162867 -58.716029 75.661695 31.825789 3.825547 -23.238513 0.000000 0.000000 0.000000 -7.125000 0.000000 0.000000 3.014244 56.765453 -0.870006 0.000000 0.000000 0.000000 2.679081 -38.371060 47.612496 -104.322447 -59.210521 -72.370721 -40.157060 -50.784785 -1.141435 0.000000 0.000000 0.000000 7.125000 0.000000 0.000000 -10.507827 28.423440 -4.306243
20.396585 15.796281 -0.459337 196.391805 -91.800182 -566.890075 0.000000 0.000000 0.000000 -14.431737 -2.256844 -41.447449 10.811875 17.841813 62.169211 0.627860 -0.340516 -14.859559 0.003996 0.406998 1.118361 0.000000 0.000000 0.000000 12.536316 5.297598 -38.834633 -9.928019 -17.369169 59.247499 0.014604 4.502391 -2.575780 -5.581883 -14.010531 43.279620 -0.515198 1.191214 13.181582 1.491003 0.890462 10.380193 1.744448 0.104528 3.518602 -3.187576 -3.885989 -13.505406 6.333965 -5.158522 3.346133 2.091764 -2.323180 3.424186 0.000000 0.000000 0.000000 5.493959 -48.452790 -58.170533 100.720137 -59.558567 69.269988 27.767360 3.027703 -23.828115 0.000000 0.000000 0.000000 -7.125000 0.000000 0.000000 -1.657926 56.496520 0.467282 0.000000 0.000000 0.000000 6.149162 -39.432883 56.800823 -108.989834 -58.591722 -76.367863 -39.039862 -51.605902 -2.840813 0.000000 0.000000 0.000000 7.125000 0.000000 0.000000 -9.428803 26.302186 -4.329406
